<mxfile host="app.diagrams.net" agent="Mozilla/5.0 (X11; Linux x86_64) AppleWebKit/537.36 (KHTML, like Gecko) Chrome/129.0.0.0 Safari/537.36" version="24.8.6">
  <diagram name="Page-1" id="uln7xrPnbrZEuAcaz5SA">
    <mxGraphModel dx="1314" dy="793" grid="1" gridSize="10" guides="1" tooltips="1" connect="1" arrows="1" fold="1" page="1" pageScale="1" pageWidth="850" pageHeight="1100" math="0" shadow="0">
      <root>
        <mxCell id="0" />
        <mxCell id="1" parent="0" />
        <mxCell id="ojPVVuD0VCiDEsULHSb4-1" value="" style="shape=image;html=1;verticalAlign=top;verticalLabelPosition=bottom;labelBackgroundColor=#ffffff;imageAspect=0;aspect=fixed;image=https://cdn4.iconfinder.com/data/icons/socialcones/508/Gitlab-128.png" vertex="1" parent="1">
          <mxGeometry x="70" y="90" width="80" height="80" as="geometry" />
        </mxCell>
        <mxCell id="ojPVVuD0VCiDEsULHSb4-3" value="" style="endArrow=classic;html=1;rounded=0;" edge="1" parent="1">
          <mxGeometry width="50" height="50" relative="1" as="geometry">
            <mxPoint x="157" y="130" as="sourcePoint" />
            <mxPoint x="237" y="130" as="targetPoint" />
          </mxGeometry>
        </mxCell>
        <mxCell id="ojPVVuD0VCiDEsULHSb4-4" value="" style="image;sketch=0;aspect=fixed;html=1;points=[];align=center;fontSize=12;image=img/lib/mscae/Docker.svg;" vertex="1" parent="1">
          <mxGeometry x="260" y="96.5" width="85.98" height="70.5" as="geometry" />
        </mxCell>
        <mxCell id="ojPVVuD0VCiDEsULHSb4-5" value="" style="endArrow=classic;html=1;rounded=0;" edge="1" parent="1">
          <mxGeometry width="50" height="50" relative="1" as="geometry">
            <mxPoint x="366" y="131" as="sourcePoint" />
            <mxPoint x="446" y="131" as="targetPoint" />
          </mxGeometry>
        </mxCell>
        <mxCell id="ojPVVuD0VCiDEsULHSb4-8" value="" style="image;html=1;image=img/lib/clip_art/computers/Server_Rack_128x128.png" vertex="1" parent="1">
          <mxGeometry x="647" y="167" width="80" height="80" as="geometry" />
        </mxCell>
        <mxCell id="ojPVVuD0VCiDEsULHSb4-9" value="" style="image;html=1;image=img/lib/clip_art/computers/Server_Rack_128x128.png" vertex="1" parent="1">
          <mxGeometry x="510" y="170" width="80" height="80" as="geometry" />
        </mxCell>
        <mxCell id="ojPVVuD0VCiDEsULHSb4-10" value="" style="sketch=0;outlineConnect=0;fontColor=#232F3E;gradientColor=none;fillColor=#8C4FFF;strokeColor=none;dashed=0;verticalLabelPosition=bottom;verticalAlign=top;align=center;html=1;fontSize=12;fontStyle=0;aspect=fixed;pointerEvents=1;shape=mxgraph.aws4.application_load_balancer;" vertex="1" parent="1">
          <mxGeometry x="575" y="50" width="78" height="78" as="geometry" />
        </mxCell>
        <mxCell id="ojPVVuD0VCiDEsULHSb4-11" value="" style="endArrow=classic;html=1;rounded=0;" edge="1" parent="1">
          <mxGeometry width="50" height="50" relative="1" as="geometry">
            <mxPoint x="579.63" y="117" as="sourcePoint" />
            <mxPoint x="560" y="150" as="targetPoint" />
          </mxGeometry>
        </mxCell>
        <mxCell id="ojPVVuD0VCiDEsULHSb4-12" value="" style="endArrow=classic;html=1;rounded=0;" edge="1" parent="1">
          <mxGeometry width="50" height="50" relative="1" as="geometry">
            <mxPoint x="647.63" y="120" as="sourcePoint" />
            <mxPoint x="676" y="153" as="targetPoint" />
          </mxGeometry>
        </mxCell>
        <mxCell id="ojPVVuD0VCiDEsULHSb4-13" value="" style="rounded=0;whiteSpace=wrap;html=1;fillColor=none;glass=0;" vertex="1" parent="1">
          <mxGeometry x="490" y="30" width="260" height="250" as="geometry" />
        </mxCell>
      </root>
    </mxGraphModel>
  </diagram>
</mxfile>
